ply
format ascii 1.0
comment Created by Blender 2.79 (sub 0) - www.blender.org, source file: ''
element vertex 103
property float x
property float y
property float z
property float nx
property float ny
property float nz
property float s
property float t
property uchar red
property uchar green
property uchar blue
element face 33
property list uchar uint vertex_indices
end_header
0.400000 0.000000 0.750000 0.158035 -0.758568 0.632140 0.347238 0.170728 255 255 255
0.500000 0.062500 0.800000 0.158035 -0.758568 0.632140 0.366994 0.168204 255 255 255
-0.100000 0.000000 0.875000 0.158035 -0.758568 0.632140 0.353806 0.186926 255 255 255
0.100000 0.250000 0.000000 0.191563 -0.842877 0.502853 0.937075 0.588132 255 255 255
-1.000000 0.000000 -0.000000 0.191563 -0.842877 0.502853 0.823204 0.800025 255 255 255
0.312500 0.000000 -0.500000 0.191563 -0.842877 0.502853 0.842022 0.472795 255 255 255
0.100000 0.250000 0.000000 0.191563 -0.842877 -0.502853 0.237985 0.000084 255 255 255
0.312500 0.000000 0.500000 0.191563 -0.842877 -0.502853 0.314730 0.128388 255 255 255
-1.000000 0.000000 -0.000000 0.191563 -0.842877 -0.502853 0.000084 0.036201 255 255 255
0.750000 0.000000 0.000000 -0.766402 -0.613121 -0.191600 0.422788 0.000084 255 255 255
0.500000 0.000000 1.000000 -0.766402 -0.613121 -0.191600 0.370900 0.227049 255 255 255
0.500000 0.062500 0.800000 -0.766402 -0.613121 -0.191600 0.366994 0.168204 255 255 255
0.400000 0.125000 0.375000 -0.358876 -0.933078 -0.023925 0.357492 0.086735 255 255 255
0.100000 0.250000 0.000000 -0.358876 -0.933078 -0.023925 0.237985 0.000084 255 255 255
0.750000 0.000000 0.000000 -0.358876 -0.933078 -0.023925 0.422788 0.000084 255 255 255
0.750000 0.000000 0.000000 -0.379792 -0.923902 -0.046505 0.422788 0.000084 255 255 255
0.500000 0.062500 0.800000 -0.379792 -0.923902 -0.046505 0.366994 0.168204 255 255 255
0.400000 0.125000 0.375000 -0.379792 -0.923902 -0.046505 0.357492 0.086735 255 255 255
0.750000 0.000000 0.000000 -0.358876 -0.933078 0.023925 0.999916 0.413823 255 255 255
0.100000 0.250000 0.000000 -0.358876 -0.933078 0.023925 0.937075 0.588132 255 255 255
0.400000 0.125000 -0.375000 -0.358876 -0.933078 0.023925 0.894387 0.445531 255 255 255
0.500000 0.062500 -0.800000 -0.766402 -0.613121 0.191600 0.807538 0.407742 255 255 255
0.500000 0.000000 -1.000000 -0.766402 -0.613121 0.191600 0.785773 0.405330 255 255 255
0.750000 0.000000 0.000000 -0.766402 -0.613121 0.191600 0.999916 0.413823 255 255 255
0.750000 0.000000 0.000000 -0.379792 -0.923902 0.046505 0.999916 0.413823 255 255 255
0.400000 0.125000 -0.375000 -0.379792 -0.923902 0.046505 0.894387 0.445531 255 255 255
0.500000 0.062500 -0.800000 -0.379792 -0.923902 0.046505 0.807538 0.407742 255 255 255
0.400000 0.125000 -0.375000 0.635092 -0.732798 0.244266 0.894387 0.445531 255 255 255
0.312500 0.000000 -0.500000 0.635092 -0.732798 0.244266 0.842022 0.472795 255 255 255
0.400000 0.000000 -0.750000 0.635092 -0.732798 0.244266 0.802598 0.417549 255 255 255
0.500000 0.062500 -0.800000 0.635092 -0.732798 0.244266 0.807538 0.407742 255 255 255
0.400000 0.000000 0.750000 0.635092 -0.732798 -0.244266 0.347238 0.170728 255 255 255
0.312500 0.000000 0.500000 0.635092 -0.732798 -0.244266 0.314730 0.128388 255 255 255
0.400000 0.125000 0.375000 0.635092 -0.732798 -0.244266 0.357492 0.086735 255 255 255
0.500000 0.062500 0.800000 0.635092 -0.732798 -0.244266 0.366994 0.168204 255 255 255
0.015523 -0.238564 -0.000000 0.195579 0.832544 -0.518285 0.582016 0.067924 255 255 255
-1.000000 0.000000 -0.000000 0.195579 0.832544 -0.518285 0.785605 0.183611 255 255 255
0.325000 0.000000 0.500000 0.195579 0.832544 -0.518285 0.469028 0.154667 255 255 255
0.015523 -0.238564 -0.000000 0.195579 0.832544 0.518285 0.958277 0.233893 255 255 255
0.325000 0.000000 -0.500000 0.195579 0.832544 0.518285 0.847125 0.336319 255 255 255
-1.000000 0.000000 -0.000000 0.195579 0.832544 0.518285 0.874187 0.000084 255 255 255
0.750000 0.000000 0.000000 -0.766402 0.613121 0.191600 0.999916 0.413823 255 255 255
0.500000 0.000000 -1.000000 -0.766402 0.613121 0.191600 0.785773 0.405330 255 255 255
0.500000 -0.062500 -0.800000 -0.766402 0.613121 0.191600 0.799054 0.404603 255 255 255
0.500000 -0.125000 -0.375000 -0.307033 0.945274 -0.110402 0.896358 0.370172 255 255 255
0.015523 -0.238564 -0.000000 -0.307033 0.945274 -0.110402 0.958277 0.233893 255 255 255
0.750000 0.000000 0.000000 -0.307033 0.945274 -0.110402 0.999916 0.413823 255 255 255
0.750000 0.000000 0.000000 -0.580502 0.805595 0.118470 0.999916 0.413823 255 255 255
0.500000 -0.062500 -0.800000 -0.580502 0.805595 0.118470 0.799054 0.404603 255 255 255
0.500000 -0.125000 -0.375000 -0.580502 0.805595 0.118470 0.896358 0.370172 255 255 255
0.750000 0.000000 0.000000 -0.307033 0.945274 0.110402 0.422788 0.000084 255 255 255
0.015523 -0.238564 -0.000000 -0.307033 0.945274 0.110402 0.582016 0.067924 255 255 255
0.500000 -0.125000 0.375000 -0.307033 0.945274 0.110402 0.445277 0.103505 255 255 255
0.500000 -0.125000 0.375000 -1.000000 0.000000 0.000000 0.445277 0.103505 255 255 255
0.500000 -0.062500 0.800000 -1.000000 0.000000 0.000000 0.398088 0.188309 255 255 255
0.500000 0.000000 1.000000 -1.000000 0.000000 0.000000 0.370900 0.227049 255 255 255
0.750000 0.000000 0.000000 -0.617213 0.771517 -0.154303 0.422788 0.000084 255 255 255
0.500000 -0.125000 0.375000 -0.617213 0.771517 -0.154303 0.445277 0.103505 255 255 255
0.500000 0.000000 1.000000 -0.617213 0.771517 -0.154303 0.370900 0.227049 255 255 255
0.412500 0.000000 0.750000 0.546716 0.824279 -0.147193 0.424088 0.192787 255 255 255
0.500000 -0.062500 0.800000 0.546716 0.824279 -0.147193 0.398088 0.188309 255 255 255
0.500000 -0.125000 0.375000 0.546716 0.824279 -0.147193 0.445277 0.103505 255 255 255
0.325000 0.000000 0.500000 0.546716 0.824279 -0.147193 0.469028 0.154667 255 255 255
0.015523 -0.238564 -0.000000 0.213359 0.823838 0.525136 0.958277 0.233893 255 255 255
0.500000 -0.125000 -0.375000 0.213359 0.823838 0.525136 0.896358 0.370172 255 255 255
0.325000 0.000000 -0.500000 0.213359 0.823838 0.525136 0.847125 0.336319 255 255 255
0.412500 0.000000 -0.750000 0.546716 0.824279 0.147193 0.799054 0.376541 255 255 255
0.325000 0.000000 -0.500000 0.546716 0.824279 0.147193 0.847125 0.336319 255 255 255
0.500000 -0.125000 -0.375000 0.546716 0.824279 0.147193 0.896358 0.370172 255 255 255
0.500000 -0.062500 -0.800000 0.546716 0.824279 0.147193 0.799054 0.404603 255 255 255
0.500000 -0.062500 0.800000 0.158035 0.758568 0.632140 0.323492 0.181186 255 255 255
0.400000 0.000000 0.750000 0.158035 0.758568 0.632140 0.347238 0.170728 255 255 255
-0.100000 0.000000 0.875000 0.158035 0.758568 0.632140 0.353806 0.186926 255 255 255
0.412500 0.000000 0.750000 0.648626 0.726461 -0.227019 0.424088 0.192787 255 255 255
0.500000 0.000000 1.000000 0.648626 0.726461 -0.227019 0.379149 0.230908 255 255 255
0.500000 -0.062500 0.800000 0.648626 0.726461 -0.227019 0.398088 0.188309 255 255 255
0.500000 0.000000 1.000000 0.062021 -0.952642 -0.297701 0.370900 0.227049 255 255 255
-0.100000 0.000000 0.875000 0.062021 -0.952642 -0.297701 0.353806 0.186926 255 255 255
0.500000 0.062500 0.800000 0.062021 -0.952642 -0.297701 0.366994 0.168204 255 255 255
-0.100000 0.000000 0.875000 0.062021 0.952642 -0.297701 0.353806 0.186926 255 255 255
0.500000 0.000000 1.000000 0.062021 0.952642 -0.297701 0.370900 0.227049 255 255 255
0.500000 -0.062500 0.800000 0.062021 0.952642 -0.297701 0.323492 0.181186 255 255 255
0.100000 0.250000 0.000000 0.343706 -0.773337 -0.532744 0.237985 0.000084 255 255 255
0.400000 0.125000 0.375000 0.343706 -0.773337 -0.532744 0.357492 0.086735 255 255 255
0.312500 0.000000 0.500000 0.343706 -0.773337 -0.532744 0.314730 0.128388 255 255 255
0.015523 -0.238564 -0.000000 0.213359 0.823838 -0.525136 0.582016 0.067924 255 255 255
0.325000 0.000000 0.500000 0.213359 0.823838 -0.525136 0.469028 0.154667 255 255 255
0.500000 -0.125000 0.375000 0.213359 0.823838 -0.525136 0.445277 0.103505 255 255 255
0.400000 0.000000 -0.750000 -0.158035 0.758568 0.632140 0.802598 0.417549 255 255 255
0.500000 0.062500 -0.800000 -0.158035 0.758568 0.632140 0.807538 0.407742 255 255 255
-0.100000 0.000000 -0.875000 -0.158035 0.758568 0.632140 0.795161 0.422694 255 255 255
-0.100000 0.000000 -0.875000 -0.062021 0.952642 -0.297701 0.795161 0.422694 255 255 255
0.500000 0.062500 -0.800000 -0.062021 0.952642 -0.297701 0.807538 0.407742 255 255 255
0.500000 0.000000 -1.000000 -0.062021 0.952642 -0.297701 0.785773 0.405330 255 255 255
-0.100000 0.000000 -0.875000 -0.062021 -0.952642 -0.297701 0.795161 0.422694 255 255 255
0.500000 0.000000 -1.000000 -0.062021 -0.952642 -0.297701 0.785773 0.405330 255 255 255
0.500000 -0.062500 -0.800000 -0.062021 -0.952642 -0.297701 0.799054 0.404603 255 255 255
-0.100000 0.000000 -0.875000 -0.158035 -0.758568 0.632140 0.795161 0.422694 255 255 255
0.500000 -0.062500 -0.800000 -0.158035 -0.758568 0.632140 0.799054 0.404603 255 255 255
0.400000 0.000000 -0.750000 -0.158035 -0.758568 0.632140 0.802598 0.417549 255 255 255
0.100000 0.250000 0.000000 0.343706 -0.773337 0.532744 0.937075 0.588132 255 255 255
0.312500 0.000000 -0.500000 0.343706 -0.773337 0.532744 0.842022 0.472795 255 255 255
0.400000 0.125000 -0.375000 0.343706 -0.773337 0.532744 0.894387 0.445531 255 255 255
3 0 1 2
3 3 4 5
3 6 7 8
3 9 10 11
3 12 13 14
3 15 16 17
3 18 19 20
3 21 22 23
3 24 25 26
4 27 28 29 30
4 31 32 33 34
3 35 36 37
3 38 39 40
3 41 42 43
3 44 45 46
3 47 48 49
3 50 51 52
3 53 54 55
3 56 57 58
4 59 60 61 62
3 63 64 65
4 66 67 68 69
3 70 71 72
3 73 74 75
3 76 77 78
3 79 80 81
3 82 83 84
3 85 86 87
3 88 89 90
3 91 92 93
3 94 95 96
3 97 98 99
3 100 101 102
