# Blender v2.79 (sub 0) OBJ File: ''
# www.blender.org
mtllib ship.mtl
o Ship_Cube.001
v 0.312500 0.000000 -0.500000
v 0.100000 0.250000 0.000000
v 0.312500 0.000000 0.500000
v 0.750000 0.000000 0.000000
v 0.400000 0.125000 -0.375000
v 0.400000 0.125000 0.375000
v 0.500000 0.000000 1.000000
v -1.000000 0.000000 -0.000000
v 0.500000 0.000000 -1.000000
v 0.325000 0.000000 0.500000
v 0.015523 -0.238564 -0.000000
v 0.325000 0.000000 -0.500000
v 0.500000 -0.125000 0.375000
v 0.500000 -0.125000 -0.375000
v 0.412500 0.000000 0.750000
v 0.500000 -0.062500 0.800000
v 0.412500 0.000000 -0.750000
v 0.400000 0.000000 0.750000
v 0.500000 0.062500 0.800000
v -0.100000 0.000000 0.875000
v 0.500000 -0.062500 -0.800000
v 0.400000 0.000000 -0.750000
v 0.500000 0.062500 -0.800000
v -0.100000 0.000000 -0.875000
vt 0.347238 0.170728
vt 0.366994 0.168204
vt 0.353806 0.186926
vt 0.937075 0.588132
vt 0.823204 0.800025
vt 0.842022 0.472795
vt 0.237985 0.000084
vt 0.314730 0.128388
vt 0.000084 0.036201
vt 0.422788 0.000084
vt 0.370900 0.227049
vt 0.357492 0.086735
vt 0.999916 0.413823
vt 0.894387 0.445531
vt 0.807538 0.407742
vt 0.785773 0.405330
vt 0.802598 0.417549
vt 0.582016 0.067924
vt 0.785605 0.183611
vt 0.469028 0.154667
vt 0.958277 0.233893
vt 0.847125 0.336319
vt 0.874187 0.000084
vt 0.799054 0.404603
vt 0.896358 0.370172
vt 0.445277 0.103505
vt 0.398088 0.188309
vt 0.424088 0.192787
vt 0.799054 0.376541
vt 0.323492 0.181186
vt 0.379149 0.230908
vt 0.795161 0.422694
vn 0.1580 -0.7586 0.6321
vn 0.1916 -0.8429 0.5029
vn 0.1916 -0.8429 -0.5029
vn -0.4357 -0.8982 -0.0585
vn -0.4357 -0.8982 0.0585
vn 0.6351 -0.7328 0.2443
vn 0.6351 -0.7328 -0.2443
vn 0.1956 0.8325 -0.5183
vn 0.1956 0.8325 0.5183
vn -0.4679 0.8838 -0.0019
vn -0.4679 0.8838 0.0019
vn 0.5467 0.8243 -0.1472
vn 0.2134 0.8238 0.5251
vn 0.5467 0.8243 0.1472
vn 0.1580 0.7586 0.6321
vn 0.6486 0.7265 -0.2270
vn 0.0620 -0.9526 -0.2977
vn 0.0620 0.9526 -0.2977
vn 0.3437 -0.7733 -0.5327
vn 0.2134 0.8238 -0.5251
vn -0.1580 0.7586 0.6321
vn -0.0620 0.9526 -0.2977
vn -0.0620 -0.9526 -0.2977
vn -0.1580 -0.7586 0.6321
vn 0.3437 -0.7733 0.5327
usemtl Material.001
s off
f 18/1/1 19/2/1 20/3/1
f 2/4/2 8/5/2 1/6/2
f 2/7/3 3/8/3 8/9/3
f 4/10/4 7/11/4 19/2/4 6/12/4 2/7/4
f 4/13/5 2/4/5 5/14/5 23/15/5 9/16/5
f 22/17/6 23/15/6 5/14/6 1/6/6
f 18/1/7 3/8/7 6/12/7 19/2/7
f 11/18/8 8/19/8 10/20/8
f 11/21/9 12/22/9 8/23/9
f 4/13/10 9/16/10 21/24/10 14/25/10 11/21/10
f 4/10/11 11/18/11 13/26/11 16/27/11 7/11/11
f 15/28/12 16/27/12 13/26/12 10/20/12
f 11/21/13 14/25/13 12/22/13
f 17/29/14 12/22/14 14/25/14 21/24/14
f 16/30/15 18/1/15 20/3/15
f 15/28/16 7/31/16 16/27/16
f 7/11/17 20/3/17 19/2/17
f 20/3/18 7/11/18 16/30/18
f 2/7/19 6/12/19 3/8/19
f 11/18/20 10/20/20 13/26/20
f 22/17/21 23/15/21 24/32/21
f 24/32/22 23/15/22 9/16/22
f 24/32/23 9/16/23 21/24/23
f 24/32/24 21/24/24 22/17/24
f 2/4/25 1/6/25 5/14/25
